<?xml version="1.0" encoding="UTF-8"?>
<!DOCTYPE svg PUBLIC "-//W3C//DTD SVG 1.1//EN" "http://www.w3.org/Graphics/SVG/1.1/DTD/svg11.dtd">
<!-- Creator: CorelDRAW 2018 (64 Bit) -->
<svg xmlns="http://www.w3.org/2000/svg" xml:space="preserve" width="750px" height="300px" version="1.1" style="shape-rendering:geometricPrecision; text-rendering:geometricPrecision; image-rendering:optimizeQuality; fill-rule:evenodd; clip-rule:evenodd"
viewBox="0 0 750 300"
 xmlns:xlink="http://www.w3.org/1999/xlink">
 <defs>
  <style type="text/css">
   <![CDATA[
    .fil2 {fill:none}
    .fil1 {fill:#556270;fill-rule:nonzero}
    .fil0 {fill:white;fill-rule:nonzero}
   ]]>
  </style>
 </defs>
    <g id="Camada_x0020_1">
        <metadata id="CorelCorpID_0Corel-Layer"/>
        <g id="_2657399341440">
            <g>
                <path class="fil0" d="M94.76 46.37l114.4 0c12.78,0 24.39,5.22 32.8,13.63 8.41,8.42 13.63,20.03 13.63,32.8l0 114.4c0,12.77 -5.22,24.38 -13.63,32.8 -8.41,8.41 -20.03,13.63 -32.8,13.63l-114.4 0c-12.77,0 -24.38,-5.22 -32.79,-13.64 -8.42,-8.41 -13.64,-20.02 -13.64,-32.79l0 -114.4c0,-12.77 5.22,-24.38 13.64,-32.8 8.41,-8.41 20.02,-13.63 32.79,-13.63z"/>
                <path class="fil1" d="M214.13 118.68c-9.06,-20.33 -16.07,-28.5 -20.25,-31.79l0 0c0,0 -15.32,-16.49 -42.73,-16.49 -26.18,0 -41.33,15.67 -41.33,15.67l0 0c-3.98,2.65 -11.45,10.33 -21.38,32.61 -27.66,62.06 -6.43,107.72 39.45,111.86l3.23 -25.13c4.76,7.19 14.66,15.98 25.85,13.38 9.48,-2.2 13.44,-6.93 15.1,-13.39l3.38 25.06c45.84,-5.32 66.91,-48.46 38.68,-111.78zm-82.91 86.04l0 0 -0.06 -0.03 -0.05 -0.04 -0.03 -0.02 -0.13 -0.08 -0.05 -0.04 -0.05 -0.03 -0.05 -0.03 -0.05 -0.03 0 -0.01 -0.06 -0.03 -0.05 -0.04 -0.05 -0.03 -0.01 -0.01 -0.04 -0.03 -0.05 -0.03 -0.05 -0.04 -0.06 -0.03 -0.05 -0.03 -0.04 -0.03 -0.01 -0.01c-0.44,-0.3 -0.89,-0.61 -1.32,-0.92l-0.35 -0.25 -0.08 -0.06 -0.43 -0.31 -0.42 -0.32 -0.02 -0.01 -0.4 -0.31c-0.54,-0.42 -1.07,-0.84 -1.58,-1.27l-0.12 -0.1 -0.28 -0.24 -0.05 -0.04 -0.28 -0.24 -0.11 -0.09 -0.05 -0.04 -0.34 -0.31 -0.36 -0.32 -0.02 -0.02 -0.38 -0.35 -0.37 -0.35 -0.06 -0.06 -0.31 -0.29c-0.23,-0.23 -0.47,-0.46 -0.7,-0.7l-0.02 -0.01 -0.18 -0.19 -0.17 -0.18 -0.08 -0.08 -0.22 -0.24 -0.12 -0.12c-0.2,-0.22 -0.41,-0.44 -0.61,-0.67l-0.32 -0.36 -0.01 -0.01 -0.33 -0.38 -0.23 -0.28 -0.09 -0.1 -0.07 -0.08 -0.25 -0.31 -0.3 -0.38 -0.01 -0.01 -0.29 -0.38 -0.01 -0.01 -0.17 -0.22 -0.06 -0.07 -0.2 -0.27 -0.07 -0.1 -0.1 -0.13 -0.23 -0.32 -0.06 -0.09 -0.26 -0.36 -0.02 -0.04 -0.28 -0.41 -0.01 -0.01 -0.27 -0.41 -0.03 -0.05 -0.24 -0.36 -0.06 -0.11 -0.2 -0.31 -0.04 -0.06 -0.14 -0.24 -0.13 -0.22 -0.14 -0.24 -0.06 -0.09 -0.14 -0.26 -0.1 -0.18 -0.17 -0.3 -0.07 -0.13 -0.2 -0.36 -0.04 -0.08 -0.21 -0.41 -0.02 -0.03 -0.22 -0.45 -0.01 -0.02 -0.21 -0.43 -0.03 -0.07 -0.06 -0.12 -0.16 -0.35 -0.05 -0.12 -0.18 -0.4 -0.03 -0.07 -0.18 -0.43 -0.02 -0.05 -0.1 -0.23 -0.04 -0.1 -0.13 -0.33 -0.05 -0.12 -0.14 -0.37 -0.04 -0.11 -0.14 -0.39 -0.16 -0.47 -0.01 -0.01 -0.16 -0.49 -0.02 -0.04 -0.14 -0.45 0 0 -0.11 -0.36 -0.06 -0.19 -0.08 -0.28 -0.05 -0.16 -0.05 -0.21 -0.02 -0.05 -0.11 -0.43 -0.03 -0.08 -0.06 -0.23 -0.08 -0.34 -0.02 -0.07 -0.08 -0.37 -0.03 -0.13 -0.03 -0.12 -0.1 -0.46 -0.01 -0.06 -0.11 -0.52c-0.36,-1.86 -0.7,-3.74 -1.02,-5.62 -6.51,-0.49 -15.8,-17.24 -10.59,-22.2 3.29,-3.14 6.05,-1.72 7.86,0.18 -0.16,-1.81 -0.3,-3.55 -0.42,-5.19 0.91,-1.54 6.12,-10.66 9.5,-23.02 22.35,4.01 42.78,-6.85 56.46,-17.21 4.84,9.01 12.04,17.89 24.5,21.08 0.14,2.57 0.04,4.14 0.04,4.14 0,6.89 -0.34,13.44 -0.9,19.56 1.74,-1.49 4.17,-2.24 7.06,0.42 5.32,4.89 -3.85,21.98 -10.34,22.28 -0.4,2.03 -0.81,3.95 -1.22,5.75 -2.63,11.63 -10.06,19.76 -20.54,26.3l-0.06 0.04 -0.26 0.16 -1.59 1c-11.1,6.92 -25.44,7.08 -36.71,0.41l-0.06 -0.04 -0.1 -0.06 -0.06 -0.03 -0.11 -0.07 -0.05 -0.03 -0.06 -0.03 -0.05 -0.03 -0.04 -0.03 -0.01 -0.01 -0.06 -0.03 -0.05 -0.03 -0.06 -0.04 -0.11 -0.06 -0.05 -0.04 -0.05 -0.03 -0.06 -0.03 -0.05 -0.03 -0.03 -0.02 0 0 -0.03 -0.02 -0.05 -0.03 -0.05 -0.03 -0.06 -0.04 -0.05 -0.03 -0.16 -0.1 -0.05 -0.03 -0.06 -0.04 0 0 -0.05 -0.03 -0.05 -0.03 -0.06 -0.04 -0.1 -0.06 -0.06 -0.04 -0.05 -0.03 -0.05 -0.04 -0.05 -0.03 -0.05 -0.03 -0.01 0 -0.05 -0.04 -0.05 -0.03 -0.06 -0.03 -0.05 -0.04 -0.05 -0.03 -0.05 -0.04 -0.05 -0.03z"/>
                <path class="fil1" d="M136.23 180.25c0,0 3.92,10.52 15.46,10.52 11.56,0 15,-10.65 15,-10.65 -5.72,-2.62 -8.46,-5.04 -14.94,-2.98 -6.94,-1.54 -9.34,0.48 -15.52,3.11zm15.46 5.26c-4.64,0.02 -10.84,-0.89 -13.04,-4.7 8.72,-0.03 17.44,-0.07 26.16,-0.11 -2.68,3.75 -8.48,4.79 -13.12,4.81z"/>
                <g>
                    <path class="fil1" d="M136.9 134.59c-5.7,0.44 -11.4,0.55 -17.1,0.58 -1.27,0 -1.73,-0.26 -1.2,-1.17 1.17,-2.02 3.41,-3.09 6.44,-3.41 4.89,-0.5 9.81,-0.6 14.72,-0.65 0.85,-0.01 1.7,-0.13 2.55,-0.14 0.82,0 1.63,0.14 1.74,0.79 0.3,1.77 -0.23,3.28 -3.25,3.65 -1.3,0.16 -2.6,0.23 -3.9,0.35z"/>
                    <path class="fil1" d="M179.63 130.53c3.94,0.39 6.1,1.67 7.14,4.39 -2.1,0.42 -4.32,0.28 -6.46,0.22 -5.09,-0.15 -10.19,-0.29 -15.27,-0.81 -3.99,-0.41 -4.33,-2.02 -3.93,-3.95 0.09,-0.41 0.46,-0.6 1.02,-0.59 0.61,0.02 13.44,0.34 17.5,0.74z"/>
                </g>
                <path class="fil1" d="M149.4 148.64c1.61,-0.93 3.79,-1.39 6.33,0.14 0.55,-3.77 2.31,-7.15 4.89,-9.73 3.13,-3.13 7.46,-5.07 12.25,-5.07 4.78,0 9.11,1.94 12.25,5.07 3.13,3.14 5.07,7.47 5.07,12.25 0,4.79 -1.94,9.12 -5.07,12.25 -3.14,3.14 -7.47,5.08 -12.25,5.08 -4.79,0 -9.12,-1.94 -12.25,-5.08 -2.94,-2.94 -4.83,-6.93 -5.05,-11.37 -2.73,-2.41 -4.89,-1.17 -5.98,-0.15 -0.18,4.49 -2.08,8.55 -5.06,11.52 -3.13,3.14 -7.46,5.08 -12.25,5.08 -4.78,0 -9.11,-1.94 -12.25,-5.08 -3.13,-3.13 -5.07,-7.46 -5.07,-12.25 0,-4.78 1.94,-9.11 5.07,-12.25 3.14,-3.13 7.47,-5.07 12.25,-5.07 8.66,0 15.84,6.36 17.12,14.66zm-7.35 12.43c2.5,-2.5 4.05,-5.95 4.05,-9.77 0,-7.63 -6.19,-13.81 -13.82,-13.81 -3.81,0 -7.27,1.54 -9.76,4.04 -2.5,2.5 -4.05,5.96 -4.05,9.77 0,3.82 1.55,7.27 4.04,9.77 2.5,2.5 5.96,4.05 9.77,4.05 3.82,0 7.27,-1.55 9.77,-4.05zm40.59 0c2.5,-2.5 4.04,-5.95 4.04,-9.77 0,-3.81 -1.54,-7.27 -4.04,-9.77 -2.5,-2.5 -5.96,-4.04 -9.77,-4.04 -3.82,0 -7.27,1.54 -9.77,4.04 -2.5,2.5 -4.05,5.96 -4.05,9.77 0,3.82 1.55,7.27 4.05,9.77 2.5,2.5 5.95,4.05 9.77,4.05 3.81,0 7.27,-1.55 9.77,-4.05z"/>
            </g>
            <path class="fil0" d="M417.38 221.76l0 -147.87c0,-2.37 -1.94,-4.1 -4.31,-4.1l-25.44 0c-2.37,0 -4.31,1.73 -4.31,4.1l0 91.18c0,1.51 -0.64,1.94 -1.07,1.94 -0.65,0 -0.87,-0.43 -1.73,-1.73l-51.08 -88.8c-2.59,-4.53 -4.75,-6.69 -9.06,-6.69l-21.77 0c-4.52,0 -8.19,3.67 -8.19,8.19l0 147.66c0,2.37 1.94,4.31 4.31,4.31l25.44 0c2.37,0 4.31,-1.94 4.31,-4.31l0 -87.3c0,-1.3 0.43,-1.73 1.08,-1.73 0.64,0 1.08,0.43 1.94,1.73l49.14 84.92c3.45,5.82 6.68,6.69 11.21,6.69l21.12 0c4.53,0 8.41,-3.67 8.41,-8.19zm53.52 -127.25l0 -20.05c0,-2.37 -1.94,-4.31 -4.31,-4.31l-28.02 0c-2.37,0 -4.31,1.94 -4.31,4.31l0 20.05c0,2.37 1.94,4.31 4.31,4.31l28.02 0c2.37,0 4.31,-1.94 4.31,-4.31zm-0.86 131.13l0 -114.89c0,-2.37 -1.94,-4.31 -4.31,-4.31l-26.3 0c-2.37,0 -4.31,1.94 -4.31,4.31l0 114.89c0,2.37 1.94,4.31 4.31,4.31l26.3 0c2.37,0 4.31,-1.94 4.31,-4.31zm121.63 -0.22l0 -71.78c0,-27.16 -6.89,-48.93 -38.15,-48.93 -13.79,0 -23.28,2.81 -35.13,11.21l0 -5.17c0,-2.37 -1.94,-4.31 -4.31,-4.31l-24.14 0c-2.38,0 -4.32,1.94 -4.32,4.31l0 114.67c0,2.37 2.16,4.53 4.53,4.53l26.08 0c2.37,0 4.31,-2.16 4.31,-4.53l0 -84.93c7.33,-3.88 14.01,-6.89 20.26,-6.89 13.15,0 15.96,4.95 15.96,20.04l0 71.78c0,2.37 1.94,4.53 4.31,4.53l26.08 0c2.37,0 4.52,-2.16 4.52,-4.53zm110 0.22l0 -76.95c0,-31.48 -19.4,-43.98 -50.44,-43.98 -14.22,0 -29.31,2.59 -37.29,4.53 -2.58,0.65 -4.09,2.37 -4.09,4.74l0 17.46c0,2.8 1.72,3.88 3.88,3.88l1.07 0c6.69,-0.65 21.99,-1.51 35.78,-1.51 10.14,0 16.17,2.59 16.17,14.88l0 7.76 -11.64 0c-36.86,0 -53.02,11.2 -53.02,36.42l0 1.94c0,28.02 18.1,37.08 36.86,37.08 12.93,0 21.55,-3.67 29.96,-9.7l0 3.45c0,2.37 1.94,4.31 4.31,4.31l24.14 0c2.37,0 4.31,-1.94 4.31,-4.31l0 0zm-34.27 -24.79c-5.18,2.58 -11.21,4.74 -17.68,4.74 -9.05,0 -13.58,-1.72 -13.58,-10.78l0 -1.94c0,-10.56 3.88,-15.73 18.97,-15.73l12.29 0 0 23.71z"/>
        </g>
        <rect class="fil2" width="750" height="300"/>
    </g>
</svg>
