<?xml version="1.0" encoding="UTF-8"?>
<!DOCTYPE svg PUBLIC "-//W3C//DTD SVG 1.1//EN" "http://www.w3.org/Graphics/SVG/1.1/DTD/svg11.dtd">
<!-- Creator: CorelDRAW 2018 (64 Bit) -->
<svg xmlns="http://www.w3.org/2000/svg" xml:space="preserve" width="100px" height="100px" version="1.1" style="shape-rendering:geometricPrecision; text-rendering:geometricPrecision; image-rendering:optimizeQuality; fill-rule:evenodd; clip-rule:evenodd"
viewBox="0 0 9.91 9.91"
 xmlns:xlink="http://www.w3.org/1999/xlink">
 <defs>
  <style type="text/css">
   <![CDATA[
    .fil1 {fill:#556270;fill-rule:nonzero}
    .fil0 {fill:white;fill-rule:nonzero}
   ]]>
  </style>
 </defs>
 <g id="Camada_x0020_1">
  <metadata id="CorelCorpID_0Corel-Layer"/>
  <g id="_2692912140704">
   <path class="fil0" d="M2.22 0l5.47 0c0.61,0 1.17,0.25 1.57,0.65 0.4,0.4 0.65,0.96 0.65,1.57l0 5.47c0,0.61 -0.25,1.17 -0.65,1.57 -0.4,0.4 -0.96,0.65 -1.57,0.65l-5.47 0c-0.61,0 -1.17,-0.25 -1.57,-0.65 -0.4,-0.4 -0.65,-0.96 -0.65,-1.57l0 -5.47c0,-0.61 0.25,-1.17 0.65,-1.57 0.4,-0.4 0.96,-0.65 1.57,-0.65z"/>
   <path class="fil1" d="M7.93 3.46c-0.44,-0.97 -0.77,-1.37 -0.97,-1.52l0 0c0,0 -0.73,-0.79 -2.04,-0.79 -1.26,0 -1.98,0.75 -1.98,0.75l0 0c-0.19,0.12 -0.55,0.49 -1.02,1.56 -1.32,2.96 -0.31,5.15 1.88,5.35l0.16 -1.21c0.23,0.35 0.7,0.77 1.23,0.64 0.46,-0.1 0.65,-0.33 0.73,-0.64l0.16 1.2c2.19,-0.25 3.2,-2.31 1.85,-5.34zm-3.97 4.11l0 0 0 0 0 0 0 0 -0.01 -0.01 0 0 0 0 -0.01 0 0 0 0 0 0 0 0 -0.01 -0.01 0 0 0 0 0 0 0 0 0 -0.01 0 0 -0.01 0 0 0 0c-0.02,-0.01 -0.04,-0.03 -0.06,-0.04l-0.02 -0.01 -0.01 -0.01 -0.02 -0.01 -0.02 -0.02 0 0 -0.02 -0.01c-0.02,-0.02 -0.05,-0.04 -0.07,-0.06l-0.01 -0.01 -0.01 -0.01 0 0 -0.02 -0.01 0 -0.01 0 0 -0.02 -0.01 -0.02 -0.02 0 0 -0.02 -0.02 -0.01 -0.01 -0.01 -0.01 -0.01 -0.01c-0.01,-0.01 -0.02,-0.02 -0.04,-0.03l0 0 -0.01 -0.01 0 -0.01 -0.01 -0.01 -0.01 -0.01 0 0c-0.01,-0.01 -0.02,-0.02 -0.03,-0.03l-0.02 -0.02 0 0 -0.01 -0.02 -0.02 -0.01 0 -0.01 0 0 -0.01 -0.02 -0.02 -0.02 0 0 -0.01 -0.01 0 0 -0.01 -0.02 0 0 -0.01 -0.01 -0.01 -0.01 0 0 -0.01 -0.02 -0.01 0 -0.01 -0.02 0 0 -0.01 -0.02 0 0 -0.02 -0.02 0 0 -0.01 -0.02 0 -0.01 -0.01 -0.01 0 0 -0.01 -0.02 -0.01 -0.01 0 -0.01 -0.01 0 0 -0.01 -0.01 -0.01 -0.01 -0.02 0 0 -0.01 -0.02 0 0 -0.01 -0.02 0 -0.01 -0.01 -0.02 0 0 -0.01 -0.02 0 0 -0.01 -0.01 0 -0.01 -0.01 -0.01 -0.01 -0.02 0 0 -0.01 -0.02 0 -0.01 0 -0.01 0 0 -0.01 -0.02 0 0 -0.01 -0.02 0 -0.01 -0.01 -0.01 -0.01 -0.03 0 0 0 -0.02 0 0 -0.01 -0.02 0 0 -0.01 -0.02 0 -0.01 0 -0.01 0 -0.01 -0.01 -0.01 0 0 0 -0.02 0 -0.01 -0.01 -0.01 0 -0.02 0 0 -0.01 -0.02 0 0 0 -0.01 0 -0.02 0 0 -0.01 -0.03c-0.02,-0.09 -0.03,-0.18 -0.05,-0.27 -0.31,-0.02 -0.75,-0.82 -0.51,-1.06 0.16,-0.15 0.29,-0.08 0.38,0.01 -0.01,-0.09 -0.01,-0.17 -0.02,-0.25 0.04,-0.07 0.29,-0.51 0.45,-1.1 1.07,0.19 2.05,-0.33 2.7,-0.82 0.24,0.43 0.58,0.85 1.18,1.01 0,0.12 0,0.19 0,0.19 0,0.33 -0.02,0.65 -0.05,0.94 0.09,-0.07 0.2,-0.11 0.34,0.02 0.26,0.23 -0.18,1.05 -0.49,1.07 -0.02,0.09 -0.04,0.18 -0.06,0.27 -0.13,0.56 -0.48,0.95 -0.98,1.26l-0.01 0 -0.01 0.01 -0.07 0.04c-0.53,0.34 -1.22,0.34 -1.76,0.02l0 0 -0.01 0 0 0 0 0 -0.01 -0.01 0 0 0 0 0 0 -0.01 0 0 0 0 0 0 -0.01 -0.01 0 0 0 0 0 -0.01 0 0 -0.01 0 0 0 0 0 0 0 0 -0.01 0 0 0 0 0 -0.01 -0.01 0 0 0 0 0 0 -0.01 0 0 0 0 -0.01 -0.01 0 0 0 0 0 0 0 -0.01 -0.01 0 0 0 0 0 0 0 0 -0.01 0 0 0 0 -0.01 0 0 -0.01 0z"/>
   <path class="fil1" d="M4.2 6.4c0,0 0.19,0.5 0.74,0.5 0.55,0 0.72,-0.5 0.72,-0.5 -0.27,-0.13 -0.41,-0.25 -0.72,-0.15 -0.33,-0.07 -0.44,0.03 -0.74,0.15zm0.74 0.25c-0.22,0 -0.52,-0.04 -0.62,-0.22 0.42,0 0.83,-0.01 1.25,-0.01 -0.13,0.18 -0.41,0.23 -0.63,0.23z"/>
   <g>
    <path class="fil1" d="M4.23 4.22c-0.27,0.02 -0.54,0.02 -0.81,0.03 -0.06,0 -0.09,-0.02 -0.06,-0.06 0.06,-0.1 0.16,-0.15 0.31,-0.16 0.23,-0.03 0.47,-0.03 0.7,-0.03 0.04,0 0.08,-0.01 0.12,-0.01 0.04,0 0.08,0.01 0.09,0.04 0.01,0.08 -0.01,0.15 -0.16,0.17 -0.06,0.01 -0.12,0.01 -0.19,0.02z"/>
    <path class="fil1" d="M6.28 4.02c0.19,0.02 0.29,0.08 0.34,0.21 -0.1,0.02 -0.21,0.02 -0.31,0.01 -0.24,0 -0.49,-0.01 -0.73,-0.03 -0.19,-0.02 -0.21,-0.1 -0.19,-0.19 0.01,-0.02 0.02,-0.03 0.05,-0.03 0.03,0 0.64,0.02 0.84,0.03z"/>
   </g>
   <path class="fil1" d="M4.83 4.89c0.08,-0.04 0.18,-0.07 0.31,0.01 0.02,-0.18 0.11,-0.35 0.23,-0.47 0.15,-0.15 0.36,-0.24 0.58,-0.24 0.23,0 0.44,0.09 0.59,0.24 0.15,0.15 0.24,0.36 0.24,0.59 0,0.23 -0.09,0.43 -0.24,0.58 -0.15,0.15 -0.36,0.25 -0.59,0.25 -0.22,0 -0.43,-0.1 -0.58,-0.25 -0.14,-0.14 -0.23,-0.33 -0.24,-0.54 -0.13,-0.12 -0.24,-0.06 -0.29,-0.01 -0.01,0.22 -0.1,0.41 -0.24,0.55 -0.15,0.15 -0.36,0.25 -0.59,0.25 -0.22,0 -0.43,-0.1 -0.58,-0.25 -0.15,-0.15 -0.24,-0.35 -0.24,-0.58 0,-0.23 0.09,-0.44 0.24,-0.59 0.15,-0.15 0.36,-0.24 0.58,-0.24 0.42,0 0.76,0.3 0.82,0.7zm-0.35 0.59c0.12,-0.12 0.19,-0.28 0.19,-0.46 0,-0.37 -0.29,-0.66 -0.66,-0.66 -0.18,0 -0.34,0.07 -0.46,0.19 -0.12,0.12 -0.2,0.28 -0.2,0.47 0,0.18 0.08,0.34 0.2,0.46 0.12,0.12 0.28,0.2 0.46,0.2 0.19,0 0.35,-0.08 0.47,-0.2zm1.94 0c0.12,-0.12 0.2,-0.28 0.2,-0.46 0,-0.19 -0.08,-0.35 -0.2,-0.47 -0.12,-0.12 -0.28,-0.19 -0.47,-0.19 -0.18,0 -0.34,0.07 -0.46,0.19 -0.12,0.12 -0.2,0.28 -0.2,0.47 0,0.18 0.08,0.34 0.2,0.46 0.12,0.12 0.28,0.2 0.46,0.2 0.19,0 0.35,-0.08 0.47,-0.2z"/>
  </g>
 </g>
</svg>
