<?xml version="1.0" encoding="UTF-8"?>
<!DOCTYPE svg PUBLIC "-//W3C//DTD SVG 1.1//EN" "http://www.w3.org/Graphics/SVG/1.1/DTD/svg11.dtd">

<svg xmlns="http://www.w3.org/2000/svg" xmlns:xlink="http://www.w3.org/1999/xlink" xml:space="preserve" version="1.1"
    width="513px"
    height="235px" 
    viewBox="0 0 161.87 74.12"
    style="shape-rendering:geometricPrecision; text-rendering:geometricPrecision; image-rendering:optimizeQuality; fill-rule:evenodd; clip-rule:evenodd"
 >
    <defs>
        <style type="text/css">
            <![CDATA[
                .fil0 {
                    fill:#FEFEFE;
                    fill-rule:nonzero
                }
            ]]>
        </style>
    </defs>
        
    <g>
        <polygon class="fil0" points="27.74,74.12 68.45,74.12 68.45,60.22 64.37,60.22 64.37,70.03 31.83,70.03 31.83,60.22 27.74,60.22 27.74,74.12 "/>
        <polygon class="fil0" points="27.74,0 27.74,13.88 31.83,13.88 31.83,4.07 64.37,4.07 64.37,13.88 68.45,13.88 68.45,0 "/>
        <polygon class="fil0" points="0,27.78 5.55,27.78 13.43,40.66 13.48,40.66 13.48,27.78 17.56,27.78 17.56,46.32 12.22,46.32 4.14,33.12 4.08,33.12 4.08,46.32 0,46.32 "/>
        <polygon class="fil0" points="27.74,46.32 31.83,46.32 31.83,27.78 27.74,27.78 "/>
        <path class="fil0" d="M51.63 32.31c-0.33,-0.42 -0.78,-0.73 -1.35,-0.93 -0.57,-0.2 -1.1,-0.3 -1.61,-0.3 -0.3,0 -0.6,0.04 -0.91,0.11 -0.32,0.07 -0.61,0.18 -0.89,0.32 -0.28,0.15 -0.51,0.35 -0.68,0.59 -0.18,0.25 -0.27,0.54 -0.27,0.89 0,0.56 0.21,0.99 0.63,1.29 0.42,0.29 0.95,0.55 1.59,0.75 0.63,0.22 1.32,0.42 2.05,0.63 0.73,0.21 1.42,0.51 2.06,0.89 0.63,0.39 1.16,0.9 1.58,1.55 0.42,0.64 0.63,1.51 0.63,2.59 0,1.03 -0.19,1.93 -0.58,2.7 -0.38,0.76 -0.9,1.4 -1.56,1.91 -0.65,0.5 -1.41,0.88 -2.27,1.12 -0.87,0.25 -1.78,0.37 -2.74,0.37 -1.2,0 -2.32,-0.19 -3.35,-0.55 -1.03,-0.37 -1.99,-0.96 -2.88,-1.78l2.91 -3.2c0.42,0.56 0.94,1 1.58,1.3 0.64,0.31 1.3,0.46 1.98,0.46 0.33,0 0.67,-0.04 1,-0.12 0.35,-0.08 0.65,-0.2 0.92,-0.35 0.27,-0.16 0.49,-0.36 0.65,-0.6 0.17,-0.25 0.25,-0.54 0.25,-0.87 0,-0.56 -0.21,-1 -0.64,-1.32 -0.42,-0.32 -0.96,-0.6 -1.61,-0.82 -0.64,-0.23 -1.34,-0.46 -2.09,-0.69 -0.75,-0.22 -1.45,-0.53 -2.1,-0.91 -0.64,-0.38 -1.18,-0.89 -1.6,-1.52 -0.43,-0.63 -0.65,-1.46 -0.65,-2.49 0,-0.99 0.2,-1.86 0.59,-2.61 0.4,-0.75 0.92,-1.38 1.57,-1.89 0.66,-0.5 1.41,-0.88 2.27,-1.14 0.85,-0.25 1.73,-0.38 2.64,-0.38 1.05,0 2.06,0.15 3.04,0.45 0.98,0.29 1.86,0.79 2.64,1.49l-2.8 3.06z"/>
        <polygon class="fil0" points="64.37,46.32 68.45,46.32 68.45,27.78 64.37,27.78 "/>
        <path class="fil0" d="M80.83 44.28l4.19 0c1.06,0 2.05,-0.14 2.95,-0.42 0.91,-0.28 1.7,-0.71 2.36,-1.3 0.66,-0.58 1.19,-1.33 1.57,-2.24 0.38,-0.9 0.58,-2 0.58,-3.27 0,-1.27 -0.2,-2.36 -0.58,-3.27 -0.38,-0.91 -0.91,-1.65 -1.57,-2.24 -0.66,-0.58 -1.45,-1.02 -2.36,-1.29 -0.9,-0.28 -1.89,-0.42 -2.95,-0.42l-4.19 0 0 14.45zm-2.2 -16.5l7.12 0c0.61,0 1.26,0.07 1.94,0.21 0.68,0.14 1.35,0.37 2.02,0.67 0.68,0.31 1.32,0.7 1.94,1.19 0.62,0.49 1.17,1.08 1.64,1.77 0.47,0.69 0.84,1.48 1.12,2.38 0.28,0.9 0.42,1.92 0.42,3.05 0,1.13 -0.14,2.15 -0.42,3.05 -0.28,0.9 -0.65,1.69 -1.12,2.38 -0.47,0.69 -1.02,1.28 -1.64,1.77 -0.62,0.49 -1.26,0.89 -1.94,1.19 -0.67,0.31 -1.34,0.53 -2.02,0.67 -0.68,0.14 -1.33,0.21 -1.94,0.21l-7.12 0 0 -18.54z"/>
        <path class="fil0" d="M110.52 30.61l-0.06 0 -3.84 9.11 7.56 0 -3.66 -9.11zm-1 -2.83l2.07 0 7.88 18.54 -2.57 0 -1.88 -4.56 -9.27 0 -1.91 4.56 -2.48 0 8.16 -18.54z"/>
        <polygon class="fil0" points="138.84,29.83 132.71,29.83 132.71,46.32 130.51,46.32 130.51,29.83 124.39,29.83 124.39,27.78 138.84,27.78 "/>
        <path class="fil0" d="M152.92 30.61l-0.05 0 -3.85 9.11 7.56 0 -3.66 -9.11zm-1 -2.83l2.07 0 7.88 18.54 -2.56 0 -1.89 -4.56 -9.26 0 -1.92 4.56 -2.48 0 8.16 -18.54z"/>
    </g>
</svg>
