<svg xmlns="http://www.w3.org/2000/svg" version="1.1"
    xml:space="preserve"
    width="100px"
    height="100px"    
    style="shape-rendering:geometricPrecision; text-rendering:geometricPrecision; image-rendering:optimizeQuality; fill-rule:evenodd; clip-rule:evenodd"
    viewBox="0 0 9.91 9.91"
    xmlns:xlink="http://www.w3.org/1999/xlink"
>
    <defs>
        <style type="text/css">
            <![CDATA[
                .fil0 {fill:white;fill-opacity:0.501961}
            ]]>
        </style>
    </defs>
    <g>
        <path class="fil0" d="M0.39 9.91c-0.05,0 -0.1,-0.01 -0.15,-0.03 -0.15,-0.06 -0.24,-0.2 -0.24,-0.36l0 -4.52c-0.03,-4.42 5.36,-6.68 8.48,-3.54 3.08,3.13 0.85,8.45 -3.55,8.45 -0.78,0 -1.52,-0.18 -2.21,-0.52 -0.66,-0.33 -1.46,-0.2 -1.98,0.33l-0.08 0.08c-0.07,0.07 -0.17,0.11 -0.27,0.11l0 0zm1.57 -1.47c0.38,0 0.75,0.08 1.11,0.26 0.58,0.29 1.21,0.44 1.87,0.43 3.7,0.01 5.59,-4.51 2.99,-7.12 -2.65,-2.65 -7.17,-0.75 -7.16,2.99 0,0 0,0 0,0l0 3.74c0.37,-0.2 0.78,-0.3 1.19,-0.3l0 0z"/>
    </g>
</svg>